# xmcd
#
# Track frame offsets:
#	150
#	26250
#	40875
#	63925
#	81213
#	99600
#	117675
#	139938
#	166988
#	183450
#	205725
#
# Disc length: 3027 seconds
#
# Revision: 0
# Processed by: cddbd v1.4PL0 Copyright (c) Steve Scherf et al.
# Submitted via: EasyCDDAExtractor 4.6.0.1
#
DISCID=950bd10b
DTITLE=Sheryl Crow - Unplugged And More
DYEAR=1900
DGENRE=
TTITLE0=Leaving Las Vegas
TTITLE1=Strong Enough
TTITLE2=Allinanado
TTITLE3=The Na Na Song
TTITLE4=Dýer Maker
TTITLE5=All I Wanna Do
TTITLE6=Can´t Cry Anymore
TTITLE7=Leaving Las Vegas
TTITLE8=Strong Enough
TTITLE9=The Na Na Song
TTITLE10=All I Wanna Do
EXTD=
EXTT0=
EXTT1=
EXTT2=
EXTT3=
EXTT4=
EXTT5=
EXTT6=
EXTT7=
EXTT8=
EXTT9=
EXTT10=
PLAYORDER=
